<svg width="211" height="57" viewBox="0 0 211 57" fill="none" xmlns="http://www.w3.org/2000/svg">
<path d="M47.3279 57H26.5682L16.7207 16.2791L8.02643 57H0.0419312L12.0187 0.664936H33.222L42.5372 41.9182L51.3201 0.664936H59.4821L47.3279 57ZM83.3961 57H64.2333L76.21 0.664936H95.4615L83.3961 57ZM126.261 25.1507L148.174 0.576221H158.199L138.327 22.1344L151.812 57H132.472L124.665 32.2481L119.43 57H100.267L112.244 0.664936H131.496L126.261 25.1507ZM173.317 0.664936H210.666L209.247 7.4074H191.149L187.423 24.5297H202.593L201.174 31.1835H186.003L181.922 50.1688H200.02L198.69 57H161.34L173.317 0.664936Z" fill="white"/>
</svg>
